<svg width="1920" height="181" viewBox="0 0 1920 181" fill="none" xmlns="http://www.w3.org/2000/svg">
<path d="M1924.37 147.23C1923.8 142.685 1868.17 145.486 1863.97 145.345C1842.77 144.633 1822.95 139.432 1802.26 135.452C1779.71 131.115 1757.01 127.75 1734.79 121.789C1674.99 105.744 1623.98 71.6622 1569.9 43.3956C1553.74 34.9456 1539.21 26.0013 1521.38 20.9704C1496.97 14.0875 1470.01 11.8432 1444.77 11.5481C1374.88 10.7306 1301.09 -0.750818 1235.97 30.2043C1206.57 44.1832 1180.01 62.8523 1152.59 80.1427C1134.52 91.5301 1112.91 97.6431 1092.94 104.829C1052.63 119.343 1012 134.107 968.38 133.662C947.727 133.451 933.224 122.485 914.485 115.948C900.103 110.931 885.611 103.163 872.272 95.7838C860.613 89.3339 846.11 87.046 833.924 81.2734C807.819 68.908 779.039 62.3112 752.609 50.6508C713.418 33.3609 671.497 18.3322 628.516 18.3322C589.338 18.3322 550.914 16.6271 512.527 25.9643C494.008 30.469 475.489 33.6676 457.689 40.7573C431.853 51.0483 407.899 64.6284 380.238 69.9666C362.221 73.4436 345.813 79.1893 328.415 84.8539C315.677 89.0012 304.068 96.5333 291.102 100.495C273.968 105.73 258.045 110.709 241.352 117.267C226.105 123.257 210.581 128.706 195.371 134.698C168.373 145.334 145.083 156.978 115.658 159.008C76.2739 161.724 34.986 161.637 -0.613403 143.838" stroke="#00A0E3" stroke-width="3" stroke-linecap="round"/>
<path d="M-5 179C-5 166.437 23.0328 162.44 33.317 160.736C61.3086 156.098 88.8874 144.502 117.353 144.502C133.47 144.502 149.202 140.443 165.685 140.443C189.781 140.443 214.39 142.002 238.4 139.992C330.237 132.306 423.291 145.233 515.109 137.512C566.419 133.197 618.721 117.426 668.813 105.494C683.574 101.978 702.277 95.6595 711.919 82.495C717.135 75.3741 725.037 65.4864 725.744 56.3395C728.545 20.0787 693.168 14.3183 664.785 16.7679C636.803 19.183 614.529 60.9559 620.263 87.6811C622.027 95.9005 633.489 102.008 639.64 105.945C656.608 116.805 673.155 127.07 692.108 133.904C726.397 146.268 759.485 150.59 795.629 150.59C830.869 150.59 864.96 148.594 899.259 139.203C937.883 128.628 973.709 109.093 1007.35 87.2301C1058.88 53.7425 1112.45 15.3148 1173.9 5.60673C1207.86 0.242268 1242.81 2.45003 1277.09 2.45003C1309.12 2.45003 1340.93 -0.18552 1371.91 9.43987C1402.89 19.0666 1432.56 32.8997 1461.06 48.6732C1491.79 65.6861 1522.63 87.7825 1555.55 99.7442C1583.55 109.92 1609.87 126.361 1639.26 132.213C1676.77 139.684 1720.16 140.738 1756.06 126.238C1780.96 116.181 1781.24 84.8996 1779.9 61.1873C1778.78 41.5617 1758.44 28.1369 1741.25 24.3215C1721.28 19.8888 1703.34 34.4333 1689.22 47.884C1673.41 62.9483 1680.6 81.319 1691.83 98.0531C1715.64 133.519 1760.25 147.099 1798.08 158.707C1839.72 171.487 1881.78 176.971 1925 176.971" stroke="#FFF500" stroke-width="3" stroke-linecap="round"/>
<path d="M6 113.5C9.96566 112.189 11.8042 110.73 15.0823 108.914C21.7851 105.2 32.4491 103.427 40.8244 101.637C77.3757 93.8241 117.652 93.0831 156.02 93.0831C206.699 93.0831 256.107 92.5665 306.182 97.9344C349.159 102.541 390.186 103.424 433.605 103.424C471.817 103.424 540.856 107.434 541.722 74.4439C542.074 61.0238 528.617 57.5003 508.257 53.379C493.895 50.4717 478.87 50.2184 463.852 49.6767C454.307 49.3324 439.637 47.8656 430.816 50.7619C416.558 55.4437 409.899 71.5512 408.721 80.3165C406.976 93.2975 409.905 103.594 421.163 114.85C435.441 129.126 461.597 136.604 486.805 142.362C533.207 152.962 586.813 153.712 635.788 152.639C692.602 151.395 758.869 144.702 809.975 129.149C848.599 117.394 882.25 99.9131 919.057 86.3168C949.062 75.2333 979.512 63.4678 1013.98 58.1665C1052.58 52.2294 1094.61 49.4214 1134.43 49.4214C1178.12 49.4214 1219.48 53.7738 1261 62.0603C1284.31 66.7121 1306.55 73.8204 1329.43 79.2952C1357.16 85.9326 1350.2 80.6875 1409.23 85.6785C1428.24 88.4062 1437.26 96.2053 1440.98 101.126C1445.14 106.625 1438.86 116.596 1433.25 120.659C1423.92 127.426 1403.19 132.291 1389.28 134.447C1359.89 138.999 1305.84 141.128 1297.57 118.169C1293.13 105.828 1294.01 95.3607 1309.16 85.6785C1323.18 76.7161 1339.06 70.7308 1358.6 66.7201C1393.8 59.498 1434.06 61.67 1470.69 62.1241C1524.32 62.7891 1578.25 70.8772 1631.15 75.7205C1672.35 79.4934 1712.35 85.6964 1753.53 89.5084C1788.36 92.7331 1823.22 93.5707 1858.43 93.0192C1883.78 92.6221 1902.59 90.8252 1916.35 77.6355C1919.03 75.0679 1921.19 66.7897 1925 65.6562" stroke="#FF0000" stroke-width="3" stroke-linecap="round"/>
</svg>
