<svg width="1920" height="109" viewBox="0 0 1920 109" fill="none" xmlns="http://www.w3.org/2000/svg">
<path d="M1 85.4016C4.50545 73.5267 28.3477 66.6016 38.1772 63.2439C76.3429 50.2065 115.587 46.1995 155.579 46.1995C201.575 46.1995 246.232 49.9997 291.522 58.1306C335.422 66.0119 378.337 72.8662 423.087 71.3873C453.948 70.3674 483.43 63.6359 511.417 50.2712C522.46 44.9979 539.726 35.3425 542.538 21.7692C545.617 6.90721 527.955 18.598 524.276 22.3374C510.592 36.243 519.7 51.562 532.289 62.297C540.703 69.472 550.162 74.8352 561.173 76.8794C603.583 84.752 651.266 75.3503 692.551 65.8952C733.942 56.4161 770.179 34.7377 810.139 21.2011C863.661 3.07042 919.007 1.93576 974.594 9.74346C1006.3 14.1973 1035.83 25.4024 1065.63 36.8251C1091.41 46.7085 1115.97 60.8913 1142.68 68.1678C1196.92 82.9422 1258.38 83.7595 1312.36 67.2209C1325.17 63.2961 1397.34 35.3136 1365.28 10.5957C1337.71 -10.6603 1227.94 8.25131 1258.5 59.0775C1265.26 70.3177 1278.67 73.608 1290.46 76.69C1313.64 82.7464 1338.7 83.1708 1362.49 83.6024C1379.35 83.9085 1394.77 82.7185 1411.31 78.7732C1463.78 66.2614 1515.23 49.4275 1568.03 38.3401C1592.18 33.2695 1620.64 34.5153 1644.81 38.8136C1673.24 43.8697 1700 54.0279 1725.13 68.3572C1751.55 83.4226 1777.82 98.7446 1808.05 104.15C1831.96 108.424 1854.67 108.583 1877.56 99.7946C1891.58 94.4134 1904.63 87.0824 1918 80.2883" stroke="#00A0E3" stroke-width="3" stroke-linecap="round"/>
</svg>
