<svg width="474" height="272" viewBox="0 0 474 272" fill="none" xmlns="http://www.w3.org/2000/svg">
<path d="M-11 270.301C-6.54585 265.847 -3.44557 259.699 0.799452 254.905C16.4274 237.256 38.5296 224.593 59.7967 214.899C80.113 205.639 100.191 204.561 122.165 204.561C151.049 204.561 179.472 204.988 208.02 199.729C230.152 195.652 253.311 186.128 269.49 169.949C278.228 161.211 288.045 146.699 289.156 133.989C290.141 122.711 282.445 114.061 271.962 110.952C264.14 108.632 255.156 109.404 247.127 109.547C235.199 109.76 225.729 112.735 215.662 119.268C201.305 128.584 184.316 145.895 187.006 164.724C189.595 182.849 201.254 195.975 216.673 204.505C238.392 216.519 260.643 220.413 285.279 219.563C312.562 218.622 333.304 211.311 348.434 187.536C356.393 175.029 361.209 160.986 366.245 147.137C371.296 133.247 376.091 119.472 378.719 104.884C383.928 75.9676 384.605 42.3946 399.115 16.2753C414.56 -11.5258 443.261 -18.1368 472.44 -23" stroke="#00A0E3" stroke-width="3" stroke-linecap="round"/>
</svg>
