<svg width="442" height="18" viewBox="0 0 442 18" fill="none" xmlns="http://www.w3.org/2000/svg">
<path d="M2 8.13679C3.88737 7.72217 5.38423 4.56288 7.51811 3.74254C12.5337 1.81436 19.0975 2.68187 24.3407 2.68187C29.2561 2.68187 34.179 2.60474 39.094 2.68187C47.0107 2.80609 55.1849 6.08009 62.7759 7.98526C79.5567 12.1969 97.4208 15.8787 114.853 14.8797C120.962 14.5296 126.866 12.6556 132.94 11.9628C138.826 11.2915 144.808 11.5461 150.721 11.5461C171.169 11.5461 191.624 11.3953 212.071 11.5461C227.657 11.6611 245.524 19.6685 260.7 13.9326C266.535 11.7269 272.335 8.89701 278.365 7.3034C287.224 4.96238 297.263 6.02664 306.339 6.09119C318.348 6.1766 330.467 9.06924 342.169 11.584C358.692 15.1348 376.262 15.9308 392.751 11.584C401.745 9.21321 411.354 8.27894 420.15 5.40933C426.659 3.28598 433.174 2 440 2" stroke="#00A0E3" stroke-width="3" stroke-linecap="round"/>
</svg>
